PathFileType	4	(X/Y/Z)	 New Session 106.trc
DataRate	CameraRate	NumFrames	NumMarkers	Units	OrigDataRate	OrigDataStartFrame	OrigNumFrames
100	100	12	14	m	100	1	724
Frame#	Time	C7			T8			IJ			PX			AA			AC			AI			TS			SC			GH			LE			ME			US			RS			
		X1	Y1	Z1	X2	Y2	Z2	X3	Y3	Z3	X4	Y4	Z4	X5	Y5	Z5	X6	Y6	Z6	X7	Y7	Z7	X8	Y8	Z8	X9	Y9	Z9	X10	Y10	Z10	X11	Y11	Z11	X12	Y12	Z12	X13	Y13	Z13	X14	Y14	Z14	
1	0.0100	0.019178	0.103369	0.165202	0.020539	-0.111895	0.233674	0.000000	0.000000	0.000000	0.004512	-0.142265	-0.068988	0.206262	0.021577	0.162742	0.160592	0.062126	0.086839	0.093575	0.025590	0.207447	0.098160	-0.093915	0.232357	0.024607	0.008789	0.004248	0.220623	0.037453	0.124247	0.306320	-0.249393	0.099496	0.222499	-0.298707	0.115913	0.290677	-0.396700	-0.137882	0.282129	-0.320390	-0.158714	
2	0.0200	0.019226	0.103281	0.165265	0.020516	-0.111949	0.233662	0.000110	-0.000058	-0.000026	0.004462	-0.142256	-0.068977	0.206272	0.021553	0.162788	0.160585	0.062100	0.086887	0.093576	0.025567	0.207492	0.098154	-0.093939	0.232402	0.024593	0.008807	0.004283	0.220608	0.037437	0.124306	0.306314	-0.249401	0.099487	0.222435	-0.298688	0.115939	0.290708	-0.396667	-0.137882	0.282149	-0.320346	-0.158713	
3	0.0300	0.019235	0.103219	0.165319	0.020494	-0.112001	0.233666	0.000200	-0.000104	-0.000056	0.004448	-0.142232	-0.068971	0.206273	0.021539	0.162847	0.160581	0.062089	0.086939	0.093577	0.025543	0.207543	0.098155	-0.093967	0.232450	0.024592	0.008852	0.004313	0.220598	0.037430	0.124361	0.306312	-0.249404	0.099489	0.222413	-0.298681	0.115955	0.290736	-0.396618	-0.137887	0.282175	-0.320301	-0.158712	
4	0.0400	0.019223	0.103188	0.165382	0.020472	-0.112051	0.233687	0.000259	-0.000130	-0.000081	0.004457	-0.142200	-0.068967	0.206255	0.021527	0.162908	0.160575	0.062085	0.086995	0.093576	0.025505	0.207598	0.098163	-0.093998	0.232498	0.024591	0.008917	0.004342	0.220591	0.037426	0.124412	0.306313	-0.249403	0.099501	0.222422	-0.298688	0.115961	0.290757	-0.396562	-0.137896	0.282204	-0.320254	-0.158710	
5	0.0500	0.019205	0.103190	0.165477	0.020451	-0.112099	0.233724	0.000285	-0.000133	-0.000093	0.004468	-0.142169	-0.068960	0.206231	0.021508	0.162957	0.160567	0.062083	0.087052	0.093571	0.025453	0.207656	0.098177	-0.094032	0.232549	0.024572	0.008990	0.004382	0.220583	0.037419	0.124462	0.306319	-0.249399	0.099524	0.222451	-0.298708	0.115956	0.290769	-0.396511	-0.137906	0.282233	-0.320207	-0.158706	
6	0.0600	0.019191	0.103196	0.165590	0.020432	-0.112144	0.233778	0.000292	-0.000116	-0.000092	0.004468	-0.142138	-0.068953	0.206222	0.021481	0.162993	0.160560	0.062076	0.087111	0.093570	0.025396	0.207719	0.098192	-0.094067	0.232602	0.024539	0.009054	0.004442	0.220574	0.037404	0.124515	0.306330	-0.249398	0.099554	0.222483	-0.298732	0.115952	0.290785	-0.396470	-0.137912	0.282261	-0.320159	-0.158700	
7	0.0700	0.019185	0.103183	0.165706	0.020419	-0.112186	0.233844	0.000296	-0.000094	-0.000081	0.004451	-0.142102	-0.068953	0.206234	0.021454	0.163032	0.160559	0.062064	0.087171	0.093588	0.025347	0.207783	0.098206	-0.094101	0.232657	0.024528	0.009101	0.004506	0.220566	0.037383	0.124571	0.306344	-0.249405	0.099588	0.222506	-0.298744	0.115961	0.290804	-0.396436	-0.137914	0.282284	-0.320112	-0.158690	
8	0.0800	0.019189	0.103154	0.165819	0.020415	-0.112228	0.233919	0.000301	-0.000075	-0.000068	0.004419	-0.142059	-0.068960	0.206254	0.021434	0.163089	0.160563	0.062052	0.087234	0.093605	0.025311	0.207845	0.098217	-0.094136	0.232713	0.024559	0.009142	0.004548	0.220558	0.037361	0.124632	0.306355	-0.249422	0.099623	0.222518	-0.298740	0.115980	0.290823	-0.396402	-0.137912	0.282303	-0.320067	-0.158679	
9	0.0900	0.019200	0.103125	0.165932	0.020422	-0.112272	0.233995	0.000304	-0.000057	-0.000055	0.004389	-0.142010	-0.068965	0.206268	0.021424	0.163155	0.160569	0.062044	0.087299	0.093616	0.025281	0.207911	0.098224	-0.094173	0.232767	0.024627	0.009207	0.004559	0.220554	0.037346	0.124693	0.306361	-0.249444	0.099656	0.222523	-0.298729	0.115998	0.290843	-0.396371	-0.137907	0.282318	-0.320026	-0.158667	
10	0.1000	0.019207	0.103102	0.166040	0.020443	-0.112318	0.234068	0.000304	-0.000028	-0.000039	0.004369	-0.141962	-0.068959	0.206277	0.021410	0.163211	0.160574	0.062035	0.087365	0.093626	0.025253	0.207990	0.098228	-0.094214	0.232819	0.024694	0.009300	0.004554	0.220554	0.037336	0.124753	0.306361	-0.249465	0.099685	0.222526	-0.298725	0.116013	0.290864	-0.396347	-0.137905	0.282328	-0.319994	-0.158657	
11	0.1100	0.019209	0.103079	0.166131	0.020475	-0.112368	0.234134	0.000303	0.000017	-0.000014	0.004347	-0.141916	-0.068942	0.206285	0.021389	0.163256	0.160577	0.062021	0.087429	0.093643	0.025221	0.208072	0.098235	-0.094259	0.232868	0.024715	0.009385	0.004560	0.220558	0.037329	0.124810	0.306361	-0.249483	0.099711	0.222530	-0.298739	0.116031	0.290880	-0.396327	-0.137909	0.282337	-0.319972	-0.158647	
12	0.1200	0.019216	0.103040	0.166201	0.020515	-0.112421	0.234193	0.000308	0.000080	0.000025	0.004332	-0.141882	-0.068917	0.206296	0.021367	0.163298	0.160580	0.062001	0.087488	0.093658	0.025176	0.208135	0.098246	-0.094304	0.232913	0.024697	0.009437	0.004582	0.220565	0.037319	0.124862	0.306363	-0.249499	0.099736	0.222535	-0.298777	0.116051	0.290886	-0.396312	-0.137910	0.282344	-0.319963	-0.158637	
